<?xml version="1.0" encoding="UTF-8"?>
<svg id="Capa_2" data-name="Capa 2" xmlns="http://www.w3.org/2000/svg" viewBox="0 0 440.14 44.69">
  <defs>
    <style>
     
      .cls-1 {
        fill: #243dce;
        animation: anim2 3.5s;
      }
      .cls-2 {
        fill: #000000;
        animation: anim1 3.5s;
      }
      @keyframes anim1 {
        from{
          fill: #000000;
        }
        to{
          fill: #234dce;
        }
      }
       @keyframes anim2 {
        from{fill: #234dce;}
        to{fill: #000000;}
      }
      .anim {
        animation: anim3 3.5s;
      }
      @keyframes anim3 {
        from {transform: translateX(0px)}
        to {transform: translateX(-420px) }
        from {transform: translateX(-420px)}
        to {transform: translateX(0px) }
      }


      .anim3 {
        animation: anim4 3.5s;
      }
      @keyframes anim4 {
        from {transform: translateX(0px)}
        to {transform: translateX(420px) }
        from {transform: translateX(420px)}
        to {transform: translateX(0px) }

      }
    
    </style>
  </defs>
  <g id="Layer_2" data-name="Layer 2">
    <g>
      <g>
        <path class="cls-2" d="M60.54,32.12c-.53,2.83-2.37,9.81-2.96,11.58H24.93v-2.44c5.79-.4,6.32-.86,6.32-6.38V9.81c0-5.53-.66-6.05-5.59-6.45V.92h20.53V3.36c-5.13,.46-5.79,.92-5.79,6.45v25.53c0,3.62,.13,5.26,3.75,5.33,.13,.07,3.16,.07,3.42,.07,3.75,0,4.74-.79,6.32-2.57,1.25-1.32,2.96-4.15,4.15-6.84l2.5,.79Z"/>
        <path class="cls-2" d="M87.45,0c12.18,0,22.11,8.88,22.11,21.85,0,14.02-10,22.84-22.44,22.84-13.16,0-22.7-9.61-22.7-22.31C64.42,11.13,72.45,0,87.45,0Zm-.98,2.9c-6.71,0-11.65,6.58-11.65,18.23s4.41,20.66,13.29,20.66c6.25,0,11.12-6.05,11.12-18.1,0-13.03-5.13-20.8-12.77-20.8h0Z"/>
        <path class="cls-2" d="M160.5,25.67c-3.75,.66-4.21,.92-4.21,5.4v5.07c0,2.37,.07,4.61,.4,6.38-3.36,.59-10.6,2.17-15.93,2.17-15.47,0-24.35-9.41-24.35-22.44C116.41,7.44,128.45,.01,142.47,.01c5.33,0,11.12,1.32,13.29,1.51,.13,2.9,.66,7.9,1.12,11.52l-2.57,.46c-1.58-5.59-4.01-8.42-8.09-9.81-1.51-.53-3.95-.79-5.59-.79-7.96,0-13.95,6.91-13.95,18.23s4.08,20.73,14.87,20.73c1.32,0,3.03-.2,4.21-.92,.99-.59,1.51-1.71,1.51-3.75v-5.79c0-4.61-.92-5.07-6.45-5.73v-2.44h19.68v2.44h0Z"/>
        <path class="cls-2" d="M190.51,0c12.18,0,22.11,8.88,22.11,21.85,0,14.02-10,22.84-22.44,22.84-13.16,0-22.7-9.61-22.7-22.31C167.48,11.13,175.51,0,190.51,0Zm-.98,2.9c-6.71,0-11.65,6.58-11.65,18.23s4.41,20.66,13.29,20.66c6.25,0,11.12-6.05,11.12-18.1,0-13.03-5.13-20.8-12.77-20.8h.01Z"/>
      </g>
      <rect class="cls-2 anim3" y="1.41" width="18.31" height="12.83"/>
      <rect class="cls-1 anim"  x="421.83" y="30.87" width="18.31" height="12.83"/>
      <g>
        <path class="cls-1" d="M243.75,13.56c-.58-1.71-1.1-3.17-2-4.51-1.23-2.07-2.2-2.56-5.81-2.56h-6.91c-1.87,0-2.07,.18-2.07,1.95v14.09h8.01c4.65,0,4.97-.73,5.94-5h1.94v12.75h-2c-.84-4.27-1.29-5.25-5.88-5.25h-8.01v10.92c0,5.31,.65,5.55,6.52,6.04v1.71h-17.96v-1.71c5.23-.37,5.81-.79,5.81-6.04V11.79c0-5.31-.65-5.55-5.81-6.04v-1.71h20.48c5.81,0,8.01-.06,9.11-.12,.06,2.2,.32,6.47,.65,9.39l-2,.24Z"/>
        <path class="cls-1" d="M273.85,3.19c11.04,0,20.93,7.99,20.93,20.13,0,13.12-9.43,21.29-21.32,21.29s-21.44-8.91-21.44-20.38,8.2-21.05,21.83-21.05Zm-1.29,2.26c-7.23,0-13.82,5.73-13.82,17.14s6.59,19.7,15.76,19.7c7.82,0,13.69-5.49,13.69-17.26,0-12.81-7.17-19.58-15.63-19.58Z"/>
        <path class="cls-1" d="M345.68,5.76c-4.13,.43-5.49,1.04-5.68,3.84-.06,1.95-.19,4.51-.19,10.19v24.46h-2.46l-27.64-31.91v15.25c0,5.49,.19,8.24,.32,10,.13,3.11,1.74,4.03,6.39,4.39v1.71h-15.7v-1.71c4-.3,5.55-1.22,5.81-4.21,.19-1.95,.32-4.7,.32-10.25V11.98c0-1.71-.13-2.68-1.29-4.03-1.23-1.53-2.58-1.89-5.75-2.2v-1.71h9.69l27.39,30.69v-14.95c0-5.67-.13-8.3-.32-10.13-.19-2.75-1.68-3.6-6.85-3.9v-1.71h15.95v1.71Z"/>
        <path class="cls-1" d="M385.34,13.62c-.58-1.95-1.36-3.97-2.07-5.06-1.03-1.65-1.68-2.07-5.23-2.07h-6.46v29.71c0,4.76,.52,5.43,6.65,5.8v1.71h-18.8v-1.71c6.01-.37,6.52-.98,6.52-5.8V6.49h-5.88c-3.55,0-4.59,.37-5.68,2.2-.78,1.22-1.29,2.68-2.13,4.94h-1.94c.39-3.72,.78-7.56,.97-10.98h1.49c.97,1.46,1.68,1.4,3.49,1.4h25.58c1.81,0,2.33-.24,3.29-1.4h1.55c0,2.87,.26,7.26,.58,10.8l-1.94,.18Z"/>
        <path class="cls-1" d="M415.37,13.32c-1.1-4.03-2.91-7.99-8.98-7.99-5.04,0-6.78,3.48-6.78,6.65,0,4.21,2.84,6.34,8.2,8.97,7.75,3.78,11.11,6.59,11.11,12.38,0,6.41-5.88,11.29-14.21,11.29-3.88,0-7.23-1.04-9.88-2.01-.52-1.71-1.29-5.86-1.74-9.15l2-.49c1.29,4.09,4.13,9.4,10.85,9.4,4.65,0,7.49-3.05,7.49-7.02,0-4.7-2.65-6.59-8.33-9.52-6.78-3.48-10.59-6.41-10.59-12.08s4.78-10.55,13.31-10.55c3.62,0,7.17,.92,8.53,1.16,.26,2.2,.52,4.64,1.03,8.6l-2,.37Z"/>
      </g>
    </g>
  </g>
</svg>